<svg xmlns="http://www.w3.org/2000/svg" width="21" height="21" viewBox="0 0 21 21" fill="none">
<g style="mix-blend-mode:overlay">
<path d="M12.7681 4.90513C12.9117 5.03971 13.0503 5.17962 13.1855 5.32252C13.2585 5.39451 13.3314 5.4665 13.4066 5.54068C13.4817 5.61503 13.5568 5.68939 13.6342 5.766C13.7089 5.83971 13.7836 5.91343 13.8605 5.98937C14.0973 6.22899 14.3167 6.48221 14.5372 6.7367C14.7808 7.01422 15.0345 7.28199 15.2881 7.55035C15.3978 7.66695 15.5075 7.78358 15.6172 7.90024C15.6713 7.95782 15.7254 8.01541 15.7812 8.07474C16.0195 8.32866 16.2568 8.58353 16.4934 8.83905C16.5328 8.88141 16.5722 8.92377 16.6128 8.96742C16.8717 9.24756 17.1173 9.53578 17.3594 9.83035C17.2403 10.2125 17.0469 10.4173 16.7594 10.6912C16.4357 11.0013 16.1363 11.3198 15.8432 11.6589C15.5843 11.9542 15.3132 12.2377 15.0429 12.5225C14.639 12.9501 14.2356 13.378 13.8377 13.8112C13.7694 13.8856 13.701 13.9599 13.6306 14.0365C13.4883 14.1961 13.3537 14.3563 13.2201 14.5227C12.9771 14.8035 12.7886 14.9003 12.4342 15.006C12.0987 15.006 11.967 14.9479 11.6986 14.7451C11.4744 14.4505 11.4261 14.2907 11.4325 13.9208C11.6344 13.4111 12.0025 13.0848 12.3918 12.7074C12.6126 12.4904 12.8148 12.2642 13.0154 12.0288C13.2273 11.7859 13.445 11.5487 13.6632 11.3114C13.7057 11.2652 13.7482 11.219 13.7919 11.1714C13.8958 11.0582 13.9998 10.9452 14.1038 10.8321C14.0199 10.832 13.9359 10.832 13.8494 10.832C11.8081 10.8307 13.5613 10.8272 11.52 10.8211C10.5328 10.8182 13.3401 10.8161 12.353 10.8158C11.4927 10.8155 10.6324 10.8138 9.77211 10.8103C9.31648 10.8086 7.91226 10.8075 7.45663 10.8082C7.0279 10.8088 6.59922 10.8075 6.17049 10.8047C6.01304 10.804 5.85558 10.804 5.69812 10.8048C5.48326 10.8058 5.26857 10.8042 5.05372 10.802C4.96005 10.8033 4.96005 10.8033 4.86448 10.8047C4.53944 10.7984 4.39498 10.7586 4.13693 10.5545C3.92007 10.2729 3.8815 10.1012 3.8815 9.74687C4.00798 9.41169 4.08231 9.27909 4.38237 9.07904C4.60235 9.06226 4.81359 9.05523 5.03364 9.0558C5.10067 9.05531 5.1677 9.05483 5.23676 9.05433C5.46209 9.05291 5.68742 9.05267 5.91276 9.05243C6.07399 9.05165 6.23523 9.0508 6.39646 9.04989C6.83486 9.0476 7.27326 9.04634 7.71167 9.04526C8.16958 9.04396 9.5761 9.04172 10.034 9.03958C10.9014 9.03567 11.7688 9.03261 12.6363 9.02984C13.6237 9.02665 10.8166 9.02253 11.804 9.01832C13.8354 9.00969 12.0724 9.00224 14.1038 8.99557C14.0509 8.93922 14.0509 8.93922 13.997 8.88173C13.8345 8.70861 13.6721 8.53546 13.5097 8.36231C13.4542 8.30324 13.3988 8.24416 13.3417 8.1833C11.4325 6.14771 11.4325 6.14771 11.4325 5.57296C11.5394 5.2458 11.6307 5.10888 11.9125 4.91035C12.2467 4.80108 12.4307 4.80697 12.7681 4.90513Z" fill="white"/>
</g>
</svg>